<svg enable-background="new 0 0 522.4 277.8" height="230.488611" viewBox="0 0 522.4 277.8" width="433.860916" xmlns="http://www.w3.org/2000/svg"><g fill="#020203"><path d="m522.4 277.8h-493.3c-16.9 0-28.9-14.3-29.1-28v-111.2c21.2 0 40.3-10.2 47.2-15.2 44-31.6 80.5-93.2 127.4-113.2 13.7-5.9 40.4-15.4 74-6.6l40.2 40.3s-21-9.9-52.2-9.9c-34.9 0-102.4 29-102.4 104.7 0 60.9 41.8 103.8 110.4 103.8h242.6z"/><path d="m465.5 220.8h-226.1c-25.6 0-59.9-12.3-70.3-36.3 0 0 101.7-104.3 106.6-109.2 12.2-12.2 33.9-12.2 44.4 0zm-224.8-80.4c-2.6 2.5-1.2 5.4 2.1 5.4h27.8l19.6-16.7c4.1-4.1 8-3.3 8 1.1v33.2c-.1 5.3 4.6 5.3 7.3 1.7l20.3-19.3h26.7c2.1-.1 3.6-2.8.8-5.6l-48.2-47.6c-3.4-3.5-10.9-3.5-14.2 0-1 1.1-50.2 47.8-50.2 47.8"/></g></svg>